<?xml version="1.0" encoding="UTF-8" standalone="no"?>
<!-- Created with Inkscape (http://www.inkscape.org/) -->

<svg
   width="128"
   height="128"
   viewBox="0 0 128 128"
   version="1.1"
   id="svg1"
   inkscape:version="1.3 (1:1.3+202307231459+0e150ed6c4)"
   sodipodi:docname="pleanty.svg"
   xmlns:inkscape="http://www.inkscape.org/namespaces/inkscape"
   xmlns:sodipodi="http://sodipodi.sourceforge.net/DTD/sodipodi-0.dtd"
   xmlns="http://www.w3.org/2000/svg"
   xmlns:svg="http://www.w3.org/2000/svg">
  <sodipodi:namedview
     id="namedview1"
     pagecolor="#505050"
     bordercolor="#eeeeee"
     borderopacity="1"
     inkscape:showpageshadow="0"
     inkscape:pageopacity="0"
     inkscape:pagecheckerboard="0"
     inkscape:deskcolor="#d1d1d1"
     inkscape:document-units="px"
     inkscape:zoom="6.625"
     inkscape:cx="64.830189"
     inkscape:cy="68"
     inkscape:window-width="1920"
     inkscape:window-height="1016"
     inkscape:window-x="1920"
     inkscape:window-y="0"
     inkscape:window-maximized="1"
     inkscape:current-layer="g9"
     showgrid="false" />
  <defs
     id="defs1" />
  <g
     inkscape:label="Capa 1"
     inkscape:groupmode="layer"
     id="layer1">
    <g
       id="g9"
       transform="translate(0,-5.9236817)">
      <ellipse
         style="fill:#ffffff;stroke:none;stroke-width:3.02362;stroke-linecap:round;-inkscape-stroke:none"
         id="path22"
         cx="49.660381"
         cy="89.546333"
         rx="5.4339619"
         ry="5.7358499" />
      <rect
         style="fill:#ffffff;stroke:none;stroke-width:3.02362;stroke-linecap:round;-inkscape-stroke:none"
         id="rect20"
         width="13.132406"
         height="8.9056559"
         x="44.556801"
         y="94.074638" />
      <rect
         style="fill:#ffffff;stroke:none;stroke-width:3.02362;stroke-linecap:round;-inkscape-stroke:none"
         id="rect15"
         width="10.264151"
         height="6.6415095"
         x="33.962269"
         y="91.055756" />
      <ellipse
         style="fill:#ffffff;stroke:none;stroke-width:3.02362;stroke-linecap:round;-inkscape-stroke:none"
         id="path15"
         cx="44.556801"
         cy="101.66877"
         rx="5.4624581"
         ry="7.5941348" />
      <ellipse
         style="fill:#ffffff;stroke:none;stroke-width:4.42567;stroke-linecap:round;-inkscape-stroke:none"
         id="path20"
         cx="71.774651"
         cy="99.736031"
         rx="6.2648835"
         ry="5.6613917" />
      <path
         id="path9"
         style="fill:#f4f1f0;stroke-width:3.02362;stroke-linecap:round"
         d="M 77.207031 22.527197 A 7.6226416 5.5849056 0 0 0 69.583984 28.113135 A 7.6226416 5.5849056 0 0 0 77.207031 33.697119 A 7.6226416 5.5849056 0 0 0 78.919922 33.554541 A 6.9433961 7.8113208 0 0 0 80.072266 36.640479 A 10.264151 12.603774 0 0 0 79.697266 39.960791 A 10.264151 12.603774 0 0 0 79.775391 41.298682 A 16.188679 19.094339 0 0 0 74.9375 48.681494 A 24.981133 25.056604 0 0 0 73.583984 48.640479 A 24.981133 25.056604 0 0 0 51.630859 61.874854 A 30.792454 25.886793 0 0 0 25.056641 87.507666 A 30.792454 25.886793 0 0 0 55.849609 113.39634 A 30.792454 25.886793 0 0 0 60.230469 113.13267 A 30.792454 25.886793 0 0 0 84.865234 95.995947 A 24.981133 25.056604 0 0 0 98.566406 73.697119 A 24.981133 25.056604 0 0 0 98.525391 72.326025 A 16.188679 19.094339 0 0 0 105.96289 56.263525 A 16.188679 19.094339 0 0 0 100.13086 41.593604 A 10.264151 12.603774 0 0 0 100.22656 39.960791 A 10.264151 12.603774 0 0 0 91.291016 27.46665 A 6.9433961 7.8113208 0 0 0 85.736328 24.339697 A 6.9433961 7.8113208 0 0 0 83.371094 24.827979 A 7.6226416 5.5849056 0 0 0 77.207031 22.527197 z M 54.113281 65.470557 A 25.584908 22.037737 0 0 1 79.697266 87.507666 A 25.584908 22.037737 0 0 1 54.113281 109.54673 A 25.584908 22.037737 0 0 1 28.527344 87.507666 A 25.584908 22.037737 0 0 1 54.113281 65.470557 z " />
      <ellipse
         style="fill:#ffffff;stroke:none;stroke-width:3.02362;stroke-linecap:round;-inkscape-stroke:none"
         id="path16"
         cx="31.178354"
         cy="102.93487"
         rx="6.1217132"
         ry="5.237596" />
      <ellipse
         style="fill:#ffffff;stroke:none;stroke-width:3.02362;stroke-linecap:round;-inkscape-stroke:none"
         id="path17"
         cx="55.124863"
         cy="107.40073"
         rx="5.1056051"
         ry="5.7319503" />
      <rect
         style="fill:#ffffff;stroke:none;stroke-width:3.02362;stroke-linecap:round;-inkscape-stroke:none"
         id="rect17"
         width="13.132406"
         height="8.9056559"
         x="52.377357"
         y="97.697273" />
      <ellipse
         style="fill:#ffffff;stroke:none;stroke-width:3.02362;stroke-linecap:round;-inkscape-stroke:none"
         id="path18"
         cx="39.849056"
         cy="112.82166"
         rx="5.8867922"
         ry="4.6491942" />
      <ellipse
         style="fill:#ffffff;stroke:none;stroke-width:3.02362;stroke-linecap:round;-inkscape-stroke:none"
         id="path19"
         cx="66.719009"
         cy="112.9641"
         rx="6.4885397"
         ry="5.563365" />
      <ellipse
         style="fill:#ffffff;stroke:none;stroke-width:3.02362;stroke-linecap:round;-inkscape-stroke:none"
         id="path21"
         cx="62.698997"
         cy="92.414253"
         rx="4.6794109"
         ry="5.7358522" />
    </g>
  </g>
</svg>
