<?xml version="1.0" encoding="UTF-8" standalone="no"?>
<!-- Created with Inkscape (http://www.inkscape.org/) -->

<svg
   width="200"
   height="200"
   viewBox="0 0 52.916665 52.916666"
   version="1.1"
   id="svg1"
   inkscape:version="1.3 (1:1.3+202307231459+0e150ed6c4)"
   sodipodi:docname="question.svg"
   xmlns:inkscape="http://www.inkscape.org/namespaces/inkscape"
   xmlns:sodipodi="http://sodipodi.sourceforge.net/DTD/sodipodi-0.dtd"
   xmlns="http://www.w3.org/2000/svg"
   xmlns:svg="http://www.w3.org/2000/svg">
  <sodipodi:namedview
     id="namedview1"
     pagecolor="#505050"
     bordercolor="#eeeeee"
     borderopacity="1"
     inkscape:showpageshadow="0"
     inkscape:pageopacity="0"
     inkscape:pagecheckerboard="0"
     inkscape:deskcolor="#d1d1d1"
     inkscape:document-units="px"
     inkscape:zoom="2.0031716"
     inkscape:cx="41.184689"
     inkscape:cy="115.56673"
     inkscape:window-width="1920"
     inkscape:window-height="1016"
     inkscape:window-x="0"
     inkscape:window-y="0"
     inkscape:window-maximized="1"
     inkscape:current-layer="layer1"
     showguides="true"
     showgrid="false">
    <sodipodi:guide
       position="13.208221,55.810745"
       orientation="1,0"
       id="guide12"
       inkscape:locked="false" />
    <sodipodi:guide
       position="39.624662,57.395732"
       orientation="1,0"
       id="guide13"
       inkscape:locked="false" />
    <sodipodi:guide
       position="-32.88847,-0.060029167"
       orientation="0,-1"
       id="guide14"
       inkscape:locked="false" />
    <sodipodi:guide
       position="21.265235,23.582686"
       orientation="0,-1"
       id="guide15"
       inkscape:locked="false" />
  </sodipodi:namedview>
  <defs
     id="defs1">
    <rect
       x="28.954084"
       y="25.459625"
       width="81.448797"
       height="116.13022"
       id="rect1" />
    <inkscape:path-effect
       effect="spiro"
       id="path-effect15"
       is_visible="true"
       lpeversion="1" />
  </defs>
  <g
     inkscape:label="Capa 1"
     inkscape:groupmode="layer"
     id="layer1">
    <path
       style="font-weight:bold;font-size:96px;line-height:1.25;font-family:'Bitstream Vera Serif';-inkscape-font-specification:'Bitstream Vera Serif Bold';text-align:center;letter-spacing:0px;word-spacing:0px;white-space:pre;fill:#ff7f2a;stroke:#ff9955;stroke-width:1.51922448;stroke-dasharray:none"
       d="m 57.583984,102.80273 q 0,-3.656246 2.625,-6.281246 2.625,-2.625 6.28125,-2.625 3.703125,0 6.328125,2.625 2.625,2.625 2.625,6.281246 0,3.70313 -2.625,6.32813 -2.625,2.625 -6.328125,2.625 -3.65625,0 -6.28125,-2.625 -2.625,-2.625 -2.625,-6.32813 z M 47.787109,42.333984 q 5.8125,-1.59375 11.0625,-2.390625 5.25,-0.796875 10.171875,-0.796875 11.8125,0 18.140625,5.203125 6.328125,5.15625 6.328125,14.765625 0,9.46875 -6.140625,14.953125 -6.09375,5.4375 -17.578125,6.28125 v 9.609375 H 63.255859 V 75.943359 q 6.5625,-2.015625 9.609375,-6.328125 3.046875,-4.3125 3.046875,-11.53125 0,-6.75 -2.859375,-10.171875 -2.859375,-3.46875 -8.4375,-3.46875 -5.15625,0 -7.96875,3.09375 -2.765625,3.09375 -3.1875,9.1875 h -5.671875 z"
       id="text1"
       transform="matrix(0.34831367,0,0,0.34831367,1.8539177,0.17765817)"
       aria-label="?" />
  </g>
</svg>
