<?xml version="1.0" encoding="UTF-8" standalone="no"?>
<!-- Created with Inkscape (http://www.inkscape.org/) -->

<svg
   width="200"
   height="200"
   viewBox="0 0 52.916665 52.916665"
   version="1.1"
   id="svg1"
   inkscape:version="1.3 (1:1.3+202307231459+0e150ed6c4)"
   sodipodi:docname="develop.svg"
   xmlns:inkscape="http://www.inkscape.org/namespaces/inkscape"
   xmlns:sodipodi="http://sodipodi.sourceforge.net/DTD/sodipodi-0.dtd"
   xmlns="http://www.w3.org/2000/svg"
   xmlns:svg="http://www.w3.org/2000/svg">
  <sodipodi:namedview
     id="namedview1"
     pagecolor="#505050"
     bordercolor="#eeeeee"
     borderopacity="1"
     inkscape:showpageshadow="0"
     inkscape:pageopacity="0"
     inkscape:pagecheckerboard="0"
     inkscape:deskcolor="#d1d1d1"
     inkscape:document-units="mm"
     inkscape:zoom="2.8036784"
     inkscape:cx="69.729824"
     inkscape:cy="58.672921"
     inkscape:window-width="1920"
     inkscape:window-height="1016"
     inkscape:window-x="0"
     inkscape:window-y="0"
     inkscape:window-maximized="1"
     inkscape:current-layer="layer1"
     showgrid="false"
     showguides="true">
    <sodipodi:guide
       position="52.410096,30.228561"
       orientation="1,0"
       id="guide1"
       inkscape:locked="false" />
    <sodipodi:guide
       position="0.60745006,36.634614"
       orientation="1,0"
       id="guide2"
       inkscape:locked="false" />
    <sodipodi:guide
       position="33.097939,47.833528"
       orientation="0,-1"
       id="guide3"
       inkscape:locked="false" />
    <sodipodi:guide
       position="30.962588,2.9361082"
       orientation="0,-1"
       id="guide4"
       inkscape:locked="false" />
    <sodipodi:guide
       position="8.6081334,8.6081334"
       orientation="0,-1"
       id="guide5"
       inkscape:locked="false" />
    <sodipodi:guide
       position="40.972046,37.301911"
       orientation="0,-1"
       id="guide6"
       inkscape:locked="false" />
  </sodipodi:namedview>
  <defs
     id="defs1">
    <inkscape:path-effect
       effect="spiro"
       id="path-effect7"
       is_visible="true"
       lpeversion="1" />
    <inkscape:path-effect
       effect="spiro"
       id="path-effect6"
       is_visible="true"
       lpeversion="1" />
    <inkscape:path-effect
       effect="spiro"
       id="path-effect6-7"
       is_visible="true"
       lpeversion="1" />
    <inkscape:path-effect
       effect="spiro"
       id="path-effect7-5"
       is_visible="true"
       lpeversion="1" />
    <inkscape:path-effect
       effect="fill_between_many"
       method="originald"
       linkedpaths="#rect4,0,1|"
       id="path-effect5" />
  </defs>
  <g
     inkscape:label="Capa 1"
     inkscape:groupmode="layer"
     id="layer1">
    <path
       id="rect5"
       style="fill:#008080;stroke-width:2.64583;stroke-linecap:round"
       d="m 21.653975,5.0828939 c 1.837008,6.6770361 1.810361,13.8086831 0,21.3754391 -1.519397,1.43356 -16.3188729,15.773303 -16.3157995,17.8502 0.00164,1.109046 0.8928982,5.671879 2.0019449,5.671879 H 45.576546 c 1.109047,0 2.001945,-4.562832 2.001945,-5.671879 0,-2.869177 -15.255968,-16.582335 -16.3158,-17.8502 -1.934555,-7.493633 -1.801328,-14.593402 0,-21.3754391 z"
       sodipodi:nodetypes="ccssssccc" />
    <path
       id="rect6"
       style="fill:#aa4400;stroke-width:2.94742;stroke-linecap:round"
       d="m 23.021753,1.5347835 h 6.873162 L 29.365748,7.6071883 H 23.55092 Z"
       sodipodi:nodetypes="ccccc" />
    <path
       id="path6"
       style="fill:#00aa00;stroke-width:2.64583;stroke-linecap:round"
       d="M 40.773739,37.484534 A 23.588955,4.2039719 0 0 1 26.458333,38.356315 23.588955,4.2039719 0 0 1 12.32793,37.510372 c -1.733671,1.855545 -3.4153494,3.756538 -5.0012454,5.740735 -0.6707577,0.666615 -0.1951296,1.656496 -0.1188558,2.3797 0.1513331,0.770376 0.3642711,1.541047 0.7493082,2.229838 10.496009,-0.0565 20.993155,8.59e-4 31.489551,-0.03101 l 5.522143,-0.0062 c 0.619536,-1.23232 0.843651,-2.619863 0.974618,-3.945496 -0.51049,-1.4429 -1.73847,-2.472432 -2.652035,-3.659725 -0.816248,-0.933322 -1.660003,-1.840141 -2.517675,-2.733683 z" />
  </g>
</svg>
