<?xml version="1.0" encoding="UTF-8" standalone="no"?>
<svg
   width="900px"
   height="900px"
   viewBox="0 0 900 900"
   version="1.1"
   xml:space="preserve"
   id="SVGRoot"
   inkscape:version="1.3 (1:1.3+202307231459+0e150ed6c4)"
   sodipodi:docname="hive.svg"
   xmlns:inkscape="http://www.inkscape.org/namespaces/inkscape"
   xmlns:sodipodi="http://sodipodi.sourceforge.net/DTD/sodipodi-0.dtd"
   xmlns="http://www.w3.org/2000/svg"
   xmlns:svg="http://www.w3.org/2000/svg"><defs
   id="defs126" />&#10;<sodipodi:namedview
   pagecolor="#a9a9a9"
   bordercolor="#292929"
   borderopacity="1"
   inkscape:showpageshadow="2"
   inkscape:pageopacity="0.0"
   inkscape:pagecheckerboard="0"
   inkscape:deskcolor="#232323"
   id="namedview1"
   inkscape:zoom="0.90777778"
   inkscape:cx="449.4492"
   inkscape:cy="450"
   inkscape:window-width="1920"
   inkscape:window-height="1016"
   inkscape:window-x="1920"
   inkscape:window-y="0"
   inkscape:window-maximized="1"
   inkscape:current-layer="SVGRoot" />&#10;<style
   type="text/css"
   id="style1">&#10;g.prefab path {&#10;  vector-effect:non-scaling-stroke;&#10;  -inkscape-stroke:hairline;&#10;  fill: none;&#10;  fill-opacity: 1;&#10;  stroke-opacity: 1;&#10;  stroke: #00349c;&#10;}&#10;</style>&#10;<g
   inkscape:label="Hive"
   style="fill: white; stroke-width: 2; stroke: black;"
   class="prefab"
   id="g126">&#10;  <path
   d="m 458.94046,243.85936 h 40 l 20,34.64 -20,34.64 h -40 l -20,-34.64 z"
   id="path1" />&#10;  <path
   d="m 218.94046,243.85936 h 40 l 20,34.64 -20,34.64 h -40 l -20,-34.64 z"
   id="path2" />&#10;  <path
   d="m 338.94046,243.85936 h 40 l 20,34.64 -20,34.64 h -40 l -20,-34.64 z"
   id="path3" />&#10;  <path
   d="m 578.94046,243.85936 h 40 l 20,34.64 -20,34.64 h -40 l -20,-34.64 z"
   id="path4" />&#10;  <path
   d="m 698.94046,243.85936 h 40 l 20,34.64 -20,34.64 h -40 l -20,-34.64 z"
   id="path5" />&#10;  <path
   d="m 518.94046,209.21936 h 40 l 20,34.64 -20,34.64 h -40 l -20,-34.64 z"
   id="path6" />&#10;  <path
   d="m 278.94046,209.21936 h 40 l 20,34.64 -20,34.64 h -40 l -20,-34.64 z"
   id="path7" />&#10;  <path
   d="m 398.94046,209.21936 h 40 l 20,34.64 -20,34.64 h -40 l -20,-34.64 z"
   id="path8" />&#10;  <path
   d="m 638.94046,209.21936 h 40 l 20,34.64 -20,34.64 h -40 l -20,-34.64 z"
   id="path9" />&#10;  <path
   d="m 758.94046,209.21936 h 40 l 20,34.64 -20,34.64 h -40 l -20,-34.64 z"
   id="path10" />&#10;  <path
   d="m 518.94046,278.49936 h 40 l 20,34.64 -20,34.64 h -40 l -20,-34.64 z"
   id="path11" />&#10;  <path
   d="m 278.94046,278.49936 h 40 l 20,34.64 -20,34.64 h -40 l -20,-34.64 z"
   id="path12" />&#10;  <path
   d="m 398.94046,278.49936 h 40 l 20,34.64 -20,34.64 h -40 l -20,-34.64 z"
   id="path13" />&#10;  <path
   d="m 638.94046,278.49936 h 40 l 20,34.64 -20,34.64 h -40 l -20,-34.64 z"
   id="path14" />&#10;  <path
   d="m 758.94046,278.49936 h 40 l 20,34.64 -20,34.64 h -40 l -20,-34.64 z"
   id="path15" />&#10;  <path
   d="m 458.94046,174.57936 h 40 l 20,34.64 -20,34.64 h -40 l -20,-34.64 z"
   id="path16" />&#10;  <path
   d="m 218.94046,174.57936 h 40 l 20,34.64 -20,34.64 h -40 l -20,-34.64 z"
   id="path17" />&#10;  <path
   d="m 338.94046,174.57936 h 40 l 20,34.64 -20,34.64 h -40 l -20,-34.64 z"
   id="path18" />&#10;  <path
   d="m 578.94046,174.57936 h 40 l 20,34.64 -20,34.64 h -40 l -20,-34.64 z"
   id="path19" />&#10;  <path
   d="m 698.94046,174.57936 h 40 l 20,34.64 -20,34.64 h -40 l -20,-34.64 z"
   id="path20" />&#10;  <path
   d="m 458.94046,313.13936 h 40 l 20,34.64 -20,34.64 h -40 l -20,-34.64 z"
   id="path21" />&#10;  <path
   d="m 218.94046,313.13936 h 40 l 20,34.64 -20,34.64 h -40 l -20,-34.64 z"
   id="path22" />&#10;  <path
   d="m 338.94046,313.13936 h 40 l 20,34.64 -20,34.64 h -40 l -20,-34.64 z"
   id="path23" />&#10;  <path
   d="m 578.94046,313.13936 h 40 l 20,34.64 -20,34.64 h -40 l -20,-34.64 z"
   id="path24" />&#10;  <path
   d="m 698.94046,313.13936 h 40 l 20,34.64 -20,34.64 h -40 l -20,-34.64 z"
   id="path25" />&#10;  <path
   d="m 518.94046,139.93936 h 40 l 20,34.64 -20,34.64 h -40 l -20,-34.64 z"
   id="path26" />&#10;  <path
   d="m 278.94046,139.93936 h 40 l 20,34.64 -20,34.64 h -40 l -20,-34.64 z"
   id="path27" />&#10;  <path
   d="m 398.94046,139.93936 h 40 l 20,34.64 -20,34.64 h -40 l -20,-34.64 z"
   id="path28" />&#10;  <path
   d="m 638.94046,139.93936 h 40 l 20,34.64 -20,34.64 h -40 l -20,-34.64 z"
   id="path29" />&#10;  <path
   d="m 758.94046,139.93936 h 40 l 20,34.64 -20,34.64 h -40 l -20,-34.64 z"
   id="path30" />&#10;  <path
   d="m 518.94046,347.77936 h 40 l 20,34.64 -20,34.64 h -40 l -20,-34.64 z"
   id="path31" />&#10;  <path
   d="m 278.94046,347.77936 h 40 l 20,34.64 -20,34.64 h -40 l -20,-34.64 z"
   id="path32" />&#10;  <path
   d="m 398.94046,347.77936 h 40 l 20,34.64 -20,34.64 h -40 l -20,-34.64 z"
   id="path33" />&#10;  <path
   d="m 638.94046,347.77936 h 40 l 20,34.64 -20,34.64 h -40 l -20,-34.64 z"
   id="path34" />&#10;  <path
   d="m 758.94046,347.77936 h 40 l 20,34.64 -20,34.64 h -40 l -20,-34.64 z"
   id="path35" />&#10;  <path
   d="m 458.94046,105.29936 h 40 l 20,34.64 -20,34.64 h -40 l -20,-34.64 z"
   id="path36" />&#10;  <path
   d="m 218.94046,105.29936 h 40 l 20,34.64 -20,34.64 h -40 l -20,-34.64 z"
   id="path37" />&#10;  <path
   d="m 338.94046,105.29936 h 40 l 20,34.64 -20,34.64 h -40 l -20,-34.64 z"
   id="path38" />&#10;  <path
   d="m 578.94046,105.29936 h 40 l 20,34.64 -20,34.64 h -40 l -20,-34.64 z"
   id="path39" />&#10;  <path
   d="m 698.94046,105.29936 h 40 l 20,34.64 -20,34.64 h -40 l -20,-34.64 z"
   id="path40" />&#10;  <path
   d="m 458.94046,382.41936 h 40 l 20,34.64 -20,34.64 h -40 l -20,-34.64 z"
   id="path41" />&#10;  <path
   d="m 218.94046,382.41936 h 40 l 20,34.64 -20,34.64 h -40 l -20,-34.64 z"
   id="path42" />&#10;  <path
   d="m 338.94046,382.41936 h 40 l 20,34.64 -20,34.64 h -40 l -20,-34.64 z"
   id="path43" />&#10;  <path
   d="m 578.94046,382.41936 h 40 l 20,34.64 -20,34.64 h -40 l -20,-34.64 z"
   id="path44" />&#10;  <path
   d="m 698.94046,382.41936 h 40 l 20,34.64 -20,34.64 h -40 l -20,-34.64 z"
   id="path45" />&#10;  <path
   d="m 518.94046,70.659355 h 40 l 20,34.64 -20,34.64 h -40 l -20,-34.64 z"
   id="path46" />&#10;  <path
   d="m 278.94046,70.659355 h 40 l 20,34.64 -20,34.64 h -40 l -20,-34.64 z"
   id="path47" />&#10;  <path
   d="m 398.94046,70.659355 h 40 l 20,34.64 -20,34.64 h -40 l -20,-34.64 z"
   id="path48" />&#10;  <path
   d="m 638.94046,70.659355 h 40 l 20,34.64 -20,34.64 h -40 l -20,-34.64 z"
   id="path49" />&#10;  <path
   d="m 758.94046,70.659355 h 40 l 20,34.64 -20,34.64 h -40 l -20,-34.64 z"
   id="path50" />&#10;  <path
   d="m 518.94046,417.05936 h 40 l 20,34.64 -20,34.64 h -40 l -20,-34.64 z"
   id="path51" />&#10;  <path
   d="m 278.94046,417.05936 h 40 l 20,34.64 -20,34.64 h -40 l -20,-34.64 z"
   id="path52" />&#10;  <path
   d="m 398.94046,417.05936 h 40 l 20,34.64 -20,34.64 h -40 l -20,-34.64 z"
   id="path53" />&#10;  <path
   d="m 638.94046,417.05936 h 40 l 20,34.64 -20,34.64 h -40 l -20,-34.64 z"
   id="path54" />&#10;  <path
   d="m 758.94046,417.05936 h 40 l 20,34.64 -20,34.64 h -40 l -20,-34.64 z"
   id="path55" />&#10;  <path
   d="m 458.94046,590.60153 h 40 l 20,34.64 -20,34.64 h -40 l -20,-34.64 z"
   id="path56" />&#10;  <path
   d="m 218.94046,590.60153 h 40 l 20,34.64 -20,34.64 h -40 l -20,-34.64 z"
   id="path57" />&#10;  <path
   d="m 338.94046,590.60153 h 40 l 20,34.64 -20,34.64 h -40 l -20,-34.64 z"
   id="path58" />&#10;  <path
   d="m 578.94046,590.60153 h 40 l 20,34.64 -20,34.64 h -40 l -20,-34.64 z"
   id="path59" />&#10;  <path
   d="m 698.94046,590.60153 h 40 l 20,34.64 -20,34.64 h -40 l -20,-34.64 z"
   id="path60" />&#10;  <path
   d="m 518.94046,555.96153 h 40 l 20,34.64 -20,34.64 h -40 l -20,-34.64 z"
   id="path61" />&#10;  <path
   d="m 278.94046,555.96153 h 40 l 20,34.64 -20,34.64 h -40 l -20,-34.64 z"
   id="path62" />&#10;  <path
   d="m 398.94046,555.96153 h 40 l 20,34.64 -20,34.64 h -40 l -20,-34.64 z"
   id="path63" />&#10;  <path
   d="m 638.94046,555.96153 h 40 l 20,34.64 -20,34.64 h -40 l -20,-34.64 z"
   id="path64" />&#10;  <path
   d="m 758.94046,555.96153 h 40 l 20,34.64 -20,34.64 h -40 l -20,-34.64 z"
   id="path65" />&#10;  <path
   d="m 518.94046,625.24153 h 40 l 20,34.64 -20,34.64 h -40 l -20,-34.64 z"
   id="path66" />&#10;  <path
   d="m 278.94046,625.24153 h 40 l 20,34.64 -20,34.64 h -40 l -20,-34.64 z"
   id="path67" />&#10;  <path
   d="m 398.94046,625.24153 h 40 l 20,34.64 -20,34.64 h -40 l -20,-34.64 z"
   id="path68" />&#10;  <path
   d="m 638.94046,625.24153 h 40 l 20,34.64 -20,34.64 h -40 l -20,-34.64 z"
   id="path69" />&#10;  <path
   d="m 758.94046,625.24153 h 40 l 20,34.64 -20,34.64 h -40 l -20,-34.64 z"
   id="path70" />&#10;  <path
   d="m 458.94046,521.32153 h 40 l 20,34.64 -20,34.64 h -40 l -20,-34.64 z"
   id="path71" />&#10;  <path
   d="m 218.94046,521.32153 h 40 l 20,34.64 -20,34.64 h -40 l -20,-34.64 z"
   id="path72" />&#10;  <path
   d="m 338.94046,521.32153 h 40 l 20,34.64 -20,34.64 h -40 l -20,-34.64 z"
   id="path73" />&#10;  <path
   d="m 578.94046,521.32153 h 40 l 20,34.64 -20,34.64 h -40 l -20,-34.64 z"
   id="path74" />&#10;  <path
   d="m 698.94046,521.32153 h 40 l 20,34.64 -20,34.64 h -40 l -20,-34.64 z"
   id="path75" />&#10;  <path
   d="m 458.94046,659.88153 h 40 l 20,34.64 -20,34.64 h -40 l -20,-34.64 z"
   id="path76" />&#10;  <path
   d="m 218.94046,659.88153 h 40 l 20,34.64 -20,34.64 h -40 l -20,-34.64 z"
   id="path77" />&#10;  <path
   d="m 338.94046,659.88153 h 40 l 20,34.64 -20,34.64 h -40 l -20,-34.64 z"
   id="path78" />&#10;  <path
   d="m 578.94046,659.88153 h 40 l 20,34.64 -20,34.64 h -40 l -20,-34.64 z"
   id="path79" />&#10;  <path
   d="m 698.94046,659.88153 h 40 l 20,34.64 -20,34.64 h -40 l -20,-34.64 z"
   id="path80" />&#10;  <path
   d="m 518.94046,486.68153 h 40 l 20,34.64 -20,34.64 h -40 l -20,-34.64 z"
   id="path81" />&#10;  <path
   d="m 278.94046,486.68153 h 40 l 20,34.64 -20,34.64 h -40 l -20,-34.64 z"
   id="path82" />&#10;  <path
   d="m 398.94046,486.68153 h 40 l 20,34.64 -20,34.64 h -40 l -20,-34.64 z"
   id="path83" />&#10;  <path
   d="m 638.94046,486.68153 h 40 l 20,34.64 -20,34.64 h -40 l -20,-34.64 z"
   id="path84" />&#10;  <path
   d="m 758.94046,486.68153 h 40 l 20,34.64 -20,34.64 h -40 l -20,-34.64 z"
   id="path85" />&#10;  <path
   d="m 518.94046,694.52153 h 40 l 20,34.64 -20,34.64 h -40 l -20,-34.64 z"
   id="path86" />&#10;  <path
   d="m 278.94046,694.52153 h 40 l 20,34.64 -20,34.64 h -40 l -20,-34.64 z"
   id="path87" />&#10;  <path
   d="m 398.94046,694.52153 h 40 l 20,34.64 -20,34.64 h -40 l -20,-34.64 z"
   id="path88" />&#10;  <path
   d="m 638.94046,694.52153 h 40 l 20,34.64 -20,34.64 h -40 l -20,-34.64 z"
   id="path89" />&#10;  <path
   d="m 758.94046,694.52153 h 40 l 20,34.64 -20,34.64 h -40 l -20,-34.64 z"
   id="path90" />&#10;  <path
   d="m 458.94046,452.04153 h 40 l 20,34.64 -20,34.64 h -40 l -20,-34.64 z"
   id="path91" />&#10;  <path
   d="m 218.94046,452.04153 h 40 l 20,34.64 -20,34.64 h -40 l -20,-34.64 z"
   id="path92" />&#10;  <path
   d="m 338.94046,452.04153 h 40 l 20,34.64 -20,34.64 h -40 l -20,-34.64 z"
   id="path93" />&#10;  <path
   d="m 578.94046,452.04153 h 40 l 20,34.64 -20,34.64 h -40 l -20,-34.64 z"
   id="path94" />&#10;  <path
   d="m 698.94046,452.04153 h 40 l 20,34.64 -20,34.64 h -40 l -20,-34.64 z"
   id="path95" />&#10;  <path
   d="m 458.94046,729.16153 h 40 l 20,34.64 -20,34.64 h -40 l -20,-34.64 z"
   id="path96" />&#10;  <path
   d="m 218.94046,729.16153 h 40 l 20,34.64 -20,34.64 h -40 l -20,-34.64 z"
   id="path97" />&#10;  <path
   d="m 338.94046,729.16153 h 40 l 20,34.64 -20,34.64 h -40 l -20,-34.64 z"
   id="path98" />&#10;  <path
   d="m 578.94046,729.16153 h 40 l 20,34.64 -20,34.64 h -40 l -20,-34.64 z"
   id="path99" />&#10;  <path
   d="m 698.94046,729.16153 h 40 l 20,34.64 -20,34.64 h -40 l -20,-34.64 z"
   id="path100" />&#10;  <path
   d="m 518.94046,763.80153 h 40 l 20,34.64 -20,34.64 h -40 l -20,-34.64 z"
   id="path101" />&#10;  <path
   d="m 278.94046,763.80153 h 40 l 20,34.64 -20,34.64 h -40 l -20,-34.64 z"
   id="path102" />&#10;  <path
   d="m 398.94046,763.80153 h 40 l 20,34.64 -20,34.64 h -40 l -20,-34.64 z"
   id="path103" />&#10;  <path
   d="m 638.94046,763.80153 h 40 l 20,34.64 -20,34.64 h -40 l -20,-34.64 z"
   id="path104" />&#10;  <path
   d="m 758.94046,763.80153 h 40 l 20,34.64 -20,34.64 h -40 l -20,-34.64 z"
   id="path105" />&#10;  <path
   d="m 98.94046,243.85936 h 40 l 20,34.64 -20,34.64 h -40 l -20,-34.64 z"
   id="path106" />&#10;  <path
   d="m 158.94046,209.21936 h 40 l 20,34.64 -20,34.64 h -40 l -20,-34.64 z"
   id="path107" />&#10;  <path
   d="m 158.94046,278.49936 h 40 l 20,34.64 -20,34.64 h -40 l -20,-34.64 z"
   id="path108" />&#10;  <path
   d="m 98.94046,174.57936 h 40 l 20,34.64 -20,34.64 h -40 l -20,-34.64 z"
   id="path109" />&#10;  <path
   d="m 98.94046,313.13936 h 40 l 20,34.64 -20,34.64 h -40 l -20,-34.64 z"
   id="path110" />&#10;  <path
   d="m 158.94046,139.93936 h 40 l 20,34.64 -20,34.64 h -40 l -20,-34.64 z"
   id="path111" />&#10;  <path
   d="m 158.94046,347.77936 h 40 l 20,34.64 -20,34.64 h -40 l -20,-34.64 z"
   id="path112" />&#10;  <path
   d="m 98.94046,105.29936 h 40 l 20,34.64 -20,34.64 h -40 l -20,-34.64 z"
   id="path113" />&#10;  <path
   d="m 98.94046,382.41936 h 40 l 20,34.64 -20,34.64 h -40 l -20,-34.64 z"
   id="path114" />&#10;  <path
   d="m 158.94046,70.659355 h 40 l 20,34.64 -20,34.64 h -40 l -20,-34.64 z"
   id="path115" />&#10;  <path
   d="m 158.94046,417.05936 h 40 l 20,34.64 -20,34.64 h -40 l -20,-34.64 z"
   id="path116" />&#10;  <path
   d="m 98.94046,590.60153 h 40 l 20,34.64 -20,34.64 h -40 l -20,-34.64 z"
   id="path117" />&#10;  <path
   d="m 158.94046,555.96153 h 40 l 20,34.64 -20,34.64 h -40 l -20,-34.64 z"
   id="path118" />&#10;  <path
   d="m 158.94046,625.24153 h 40 l 20,34.64 -20,34.64 h -40 l -20,-34.64 z"
   id="path119" />&#10;  <path
   d="m 98.94046,521.32153 h 40 l 20,34.64 -20,34.64 h -40 l -20,-34.64 z"
   id="path120" />&#10;  <path
   d="m 98.94046,659.88153 h 40 l 20,34.64 -20,34.64 h -40 l -20,-34.64 z"
   id="path121" />&#10;  <path
   d="m 158.94046,486.68153 h 40 l 20,34.64 -20,34.64 h -40 l -20,-34.64 z"
   id="path122" />&#10;  <path
   d="m 158.94046,694.52153 h 40 l 20,34.64 -20,34.64 h -40 l -20,-34.64 z"
   id="path123" />&#10;  <path
   d="m 98.94046,452.04153 h 40 l 20,34.64 -20,34.64 h -40 l -20,-34.64 z"
   id="path124" />&#10;  <path
   d="m 98.94046,729.16153 h 40 l 20,34.64 -20,34.64 h -40 l -20,-34.64 z"
   id="path125" />&#10;  <path
   d="m 158.94046,763.80153 h 40 l 20,34.64 -20,34.64 h -40 l -20,-34.64 z"
   id="path126" />&#10;</g>&#10;</svg>
